G04 #@! TF.GenerationSoftware,KiCad,Pcbnew,(5.1.2)-1*
G04 #@! TF.CreationDate,2019-06-03T12:51:13-05:00*
G04 #@! TF.ProjectId,1stCircuit,31737443-6972-4637-9569-742e6b696361,rev?*
G04 #@! TF.SameCoordinates,Original*
G04 #@! TF.FileFunction,Paste,Top*
G04 #@! TF.FilePolarity,Positive*
%FSLAX46Y46*%
G04 Gerber Fmt 4.6, Leading zero omitted, Abs format (unit mm)*
G04 Created by KiCad (PCBNEW (5.1.2)-1) date 2019-06-03 12:51:13*
%MOMM*%
%LPD*%
G04 APERTURE LIST*
%ADD10C,0.100000*%
%ADD11C,1.575000*%
%ADD12C,1.250000*%
%ADD13C,1.600000*%
G04 APERTURE END LIST*
D10*
G36*
X144381505Y-103749204D02*
G01*
X144405773Y-103752804D01*
X144429572Y-103758765D01*
X144452671Y-103767030D01*
X144474850Y-103777520D01*
X144495893Y-103790132D01*
X144515599Y-103804747D01*
X144533777Y-103821223D01*
X144550253Y-103839401D01*
X144564868Y-103859107D01*
X144577480Y-103880150D01*
X144587970Y-103902329D01*
X144596235Y-103925428D01*
X144602196Y-103949227D01*
X144605796Y-103973495D01*
X144607000Y-103997999D01*
X144607000Y-105298001D01*
X144605796Y-105322505D01*
X144602196Y-105346773D01*
X144596235Y-105370572D01*
X144587970Y-105393671D01*
X144577480Y-105415850D01*
X144564868Y-105436893D01*
X144550253Y-105456599D01*
X144533777Y-105474777D01*
X144515599Y-105491253D01*
X144495893Y-105505868D01*
X144474850Y-105518480D01*
X144452671Y-105528970D01*
X144429572Y-105537235D01*
X144405773Y-105543196D01*
X144381505Y-105546796D01*
X144357001Y-105548000D01*
X143281999Y-105548000D01*
X143257495Y-105546796D01*
X143233227Y-105543196D01*
X143209428Y-105537235D01*
X143186329Y-105528970D01*
X143164150Y-105518480D01*
X143143107Y-105505868D01*
X143123401Y-105491253D01*
X143105223Y-105474777D01*
X143088747Y-105456599D01*
X143074132Y-105436893D01*
X143061520Y-105415850D01*
X143051030Y-105393671D01*
X143042765Y-105370572D01*
X143036804Y-105346773D01*
X143033204Y-105322505D01*
X143032000Y-105298001D01*
X143032000Y-103997999D01*
X143033204Y-103973495D01*
X143036804Y-103949227D01*
X143042765Y-103925428D01*
X143051030Y-103902329D01*
X143061520Y-103880150D01*
X143074132Y-103859107D01*
X143088747Y-103839401D01*
X143105223Y-103821223D01*
X143123401Y-103804747D01*
X143143107Y-103790132D01*
X143164150Y-103777520D01*
X143186329Y-103767030D01*
X143209428Y-103758765D01*
X143233227Y-103752804D01*
X143257495Y-103749204D01*
X143281999Y-103748000D01*
X144357001Y-103748000D01*
X144381505Y-103749204D01*
X144381505Y-103749204D01*
G37*
D11*
X143819500Y-104648000D03*
D10*
G36*
X140206505Y-103749204D02*
G01*
X140230773Y-103752804D01*
X140254572Y-103758765D01*
X140277671Y-103767030D01*
X140299850Y-103777520D01*
X140320893Y-103790132D01*
X140340599Y-103804747D01*
X140358777Y-103821223D01*
X140375253Y-103839401D01*
X140389868Y-103859107D01*
X140402480Y-103880150D01*
X140412970Y-103902329D01*
X140421235Y-103925428D01*
X140427196Y-103949227D01*
X140430796Y-103973495D01*
X140432000Y-103997999D01*
X140432000Y-105298001D01*
X140430796Y-105322505D01*
X140427196Y-105346773D01*
X140421235Y-105370572D01*
X140412970Y-105393671D01*
X140402480Y-105415850D01*
X140389868Y-105436893D01*
X140375253Y-105456599D01*
X140358777Y-105474777D01*
X140340599Y-105491253D01*
X140320893Y-105505868D01*
X140299850Y-105518480D01*
X140277671Y-105528970D01*
X140254572Y-105537235D01*
X140230773Y-105543196D01*
X140206505Y-105546796D01*
X140182001Y-105548000D01*
X139106999Y-105548000D01*
X139082495Y-105546796D01*
X139058227Y-105543196D01*
X139034428Y-105537235D01*
X139011329Y-105528970D01*
X138989150Y-105518480D01*
X138968107Y-105505868D01*
X138948401Y-105491253D01*
X138930223Y-105474777D01*
X138913747Y-105456599D01*
X138899132Y-105436893D01*
X138886520Y-105415850D01*
X138876030Y-105393671D01*
X138867765Y-105370572D01*
X138861804Y-105346773D01*
X138858204Y-105322505D01*
X138857000Y-105298001D01*
X138857000Y-103997999D01*
X138858204Y-103973495D01*
X138861804Y-103949227D01*
X138867765Y-103925428D01*
X138876030Y-103902329D01*
X138886520Y-103880150D01*
X138899132Y-103859107D01*
X138913747Y-103839401D01*
X138930223Y-103821223D01*
X138948401Y-103804747D01*
X138968107Y-103790132D01*
X138989150Y-103777520D01*
X139011329Y-103767030D01*
X139034428Y-103758765D01*
X139058227Y-103752804D01*
X139082495Y-103749204D01*
X139106999Y-103748000D01*
X140182001Y-103748000D01*
X140206505Y-103749204D01*
X140206505Y-103749204D01*
G37*
D11*
X139644500Y-104648000D03*
D10*
G36*
X151405504Y-105298204D02*
G01*
X151429773Y-105301804D01*
X151453571Y-105307765D01*
X151476671Y-105316030D01*
X151498849Y-105326520D01*
X151519893Y-105339133D01*
X151539598Y-105353747D01*
X151557777Y-105370223D01*
X151574253Y-105388402D01*
X151588867Y-105408107D01*
X151601480Y-105429151D01*
X151611970Y-105451329D01*
X151620235Y-105474429D01*
X151626196Y-105498227D01*
X151629796Y-105522496D01*
X151631000Y-105547000D01*
X151631000Y-106797000D01*
X151629796Y-106821504D01*
X151626196Y-106845773D01*
X151620235Y-106869571D01*
X151611970Y-106892671D01*
X151601480Y-106914849D01*
X151588867Y-106935893D01*
X151574253Y-106955598D01*
X151557777Y-106973777D01*
X151539598Y-106990253D01*
X151519893Y-107004867D01*
X151498849Y-107017480D01*
X151476671Y-107027970D01*
X151453571Y-107036235D01*
X151429773Y-107042196D01*
X151405504Y-107045796D01*
X151381000Y-107047000D01*
X150631000Y-107047000D01*
X150606496Y-107045796D01*
X150582227Y-107042196D01*
X150558429Y-107036235D01*
X150535329Y-107027970D01*
X150513151Y-107017480D01*
X150492107Y-107004867D01*
X150472402Y-106990253D01*
X150454223Y-106973777D01*
X150437747Y-106955598D01*
X150423133Y-106935893D01*
X150410520Y-106914849D01*
X150400030Y-106892671D01*
X150391765Y-106869571D01*
X150385804Y-106845773D01*
X150382204Y-106821504D01*
X150381000Y-106797000D01*
X150381000Y-105547000D01*
X150382204Y-105522496D01*
X150385804Y-105498227D01*
X150391765Y-105474429D01*
X150400030Y-105451329D01*
X150410520Y-105429151D01*
X150423133Y-105408107D01*
X150437747Y-105388402D01*
X150454223Y-105370223D01*
X150472402Y-105353747D01*
X150492107Y-105339133D01*
X150513151Y-105326520D01*
X150535329Y-105316030D01*
X150558429Y-105307765D01*
X150582227Y-105301804D01*
X150606496Y-105298204D01*
X150631000Y-105297000D01*
X151381000Y-105297000D01*
X151405504Y-105298204D01*
X151405504Y-105298204D01*
G37*
D12*
X151006000Y-106172000D03*
D10*
G36*
X148605504Y-105298204D02*
G01*
X148629773Y-105301804D01*
X148653571Y-105307765D01*
X148676671Y-105316030D01*
X148698849Y-105326520D01*
X148719893Y-105339133D01*
X148739598Y-105353747D01*
X148757777Y-105370223D01*
X148774253Y-105388402D01*
X148788867Y-105408107D01*
X148801480Y-105429151D01*
X148811970Y-105451329D01*
X148820235Y-105474429D01*
X148826196Y-105498227D01*
X148829796Y-105522496D01*
X148831000Y-105547000D01*
X148831000Y-106797000D01*
X148829796Y-106821504D01*
X148826196Y-106845773D01*
X148820235Y-106869571D01*
X148811970Y-106892671D01*
X148801480Y-106914849D01*
X148788867Y-106935893D01*
X148774253Y-106955598D01*
X148757777Y-106973777D01*
X148739598Y-106990253D01*
X148719893Y-107004867D01*
X148698849Y-107017480D01*
X148676671Y-107027970D01*
X148653571Y-107036235D01*
X148629773Y-107042196D01*
X148605504Y-107045796D01*
X148581000Y-107047000D01*
X147831000Y-107047000D01*
X147806496Y-107045796D01*
X147782227Y-107042196D01*
X147758429Y-107036235D01*
X147735329Y-107027970D01*
X147713151Y-107017480D01*
X147692107Y-107004867D01*
X147672402Y-106990253D01*
X147654223Y-106973777D01*
X147637747Y-106955598D01*
X147623133Y-106935893D01*
X147610520Y-106914849D01*
X147600030Y-106892671D01*
X147591765Y-106869571D01*
X147585804Y-106845773D01*
X147582204Y-106821504D01*
X147581000Y-106797000D01*
X147581000Y-105547000D01*
X147582204Y-105522496D01*
X147585804Y-105498227D01*
X147591765Y-105474429D01*
X147600030Y-105451329D01*
X147610520Y-105429151D01*
X147623133Y-105408107D01*
X147637747Y-105388402D01*
X147654223Y-105370223D01*
X147672402Y-105353747D01*
X147692107Y-105339133D01*
X147713151Y-105326520D01*
X147735329Y-105316030D01*
X147758429Y-105307765D01*
X147782227Y-105301804D01*
X147806496Y-105298204D01*
X147831000Y-105297000D01*
X148581000Y-105297000D01*
X148605504Y-105298204D01*
X148605504Y-105298204D01*
G37*
D12*
X148206000Y-106172000D03*
D10*
G36*
X166884504Y-93181204D02*
G01*
X166908773Y-93184804D01*
X166932571Y-93190765D01*
X166955671Y-93199030D01*
X166977849Y-93209520D01*
X166998893Y-93222133D01*
X167018598Y-93236747D01*
X167036777Y-93253223D01*
X167053253Y-93271402D01*
X167067867Y-93291107D01*
X167080480Y-93312151D01*
X167090970Y-93334329D01*
X167099235Y-93357429D01*
X167105196Y-93381227D01*
X167108796Y-93405496D01*
X167110000Y-93430000D01*
X167110000Y-94530000D01*
X167108796Y-94554504D01*
X167105196Y-94578773D01*
X167099235Y-94602571D01*
X167090970Y-94625671D01*
X167080480Y-94647849D01*
X167067867Y-94668893D01*
X167053253Y-94688598D01*
X167036777Y-94706777D01*
X167018598Y-94723253D01*
X166998893Y-94737867D01*
X166977849Y-94750480D01*
X166955671Y-94760970D01*
X166932571Y-94769235D01*
X166908773Y-94775196D01*
X166884504Y-94778796D01*
X166860000Y-94780000D01*
X163860000Y-94780000D01*
X163835496Y-94778796D01*
X163811227Y-94775196D01*
X163787429Y-94769235D01*
X163764329Y-94760970D01*
X163742151Y-94750480D01*
X163721107Y-94737867D01*
X163701402Y-94723253D01*
X163683223Y-94706777D01*
X163666747Y-94688598D01*
X163652133Y-94668893D01*
X163639520Y-94647849D01*
X163629030Y-94625671D01*
X163620765Y-94602571D01*
X163614804Y-94578773D01*
X163611204Y-94554504D01*
X163610000Y-94530000D01*
X163610000Y-93430000D01*
X163611204Y-93405496D01*
X163614804Y-93381227D01*
X163620765Y-93357429D01*
X163629030Y-93334329D01*
X163639520Y-93312151D01*
X163652133Y-93291107D01*
X163666747Y-93271402D01*
X163683223Y-93253223D01*
X163701402Y-93236747D01*
X163721107Y-93222133D01*
X163742151Y-93209520D01*
X163764329Y-93199030D01*
X163787429Y-93190765D01*
X163811227Y-93184804D01*
X163835496Y-93181204D01*
X163860000Y-93180000D01*
X166860000Y-93180000D01*
X166884504Y-93181204D01*
X166884504Y-93181204D01*
G37*
D13*
X165360000Y-93980000D03*
D10*
G36*
X161284504Y-93181204D02*
G01*
X161308773Y-93184804D01*
X161332571Y-93190765D01*
X161355671Y-93199030D01*
X161377849Y-93209520D01*
X161398893Y-93222133D01*
X161418598Y-93236747D01*
X161436777Y-93253223D01*
X161453253Y-93271402D01*
X161467867Y-93291107D01*
X161480480Y-93312151D01*
X161490970Y-93334329D01*
X161499235Y-93357429D01*
X161505196Y-93381227D01*
X161508796Y-93405496D01*
X161510000Y-93430000D01*
X161510000Y-94530000D01*
X161508796Y-94554504D01*
X161505196Y-94578773D01*
X161499235Y-94602571D01*
X161490970Y-94625671D01*
X161480480Y-94647849D01*
X161467867Y-94668893D01*
X161453253Y-94688598D01*
X161436777Y-94706777D01*
X161418598Y-94723253D01*
X161398893Y-94737867D01*
X161377849Y-94750480D01*
X161355671Y-94760970D01*
X161332571Y-94769235D01*
X161308773Y-94775196D01*
X161284504Y-94778796D01*
X161260000Y-94780000D01*
X158260000Y-94780000D01*
X158235496Y-94778796D01*
X158211227Y-94775196D01*
X158187429Y-94769235D01*
X158164329Y-94760970D01*
X158142151Y-94750480D01*
X158121107Y-94737867D01*
X158101402Y-94723253D01*
X158083223Y-94706777D01*
X158066747Y-94688598D01*
X158052133Y-94668893D01*
X158039520Y-94647849D01*
X158029030Y-94625671D01*
X158020765Y-94602571D01*
X158014804Y-94578773D01*
X158011204Y-94554504D01*
X158010000Y-94530000D01*
X158010000Y-93430000D01*
X158011204Y-93405496D01*
X158014804Y-93381227D01*
X158020765Y-93357429D01*
X158029030Y-93334329D01*
X158039520Y-93312151D01*
X158052133Y-93291107D01*
X158066747Y-93271402D01*
X158083223Y-93253223D01*
X158101402Y-93236747D01*
X158121107Y-93222133D01*
X158142151Y-93209520D01*
X158164329Y-93199030D01*
X158187429Y-93190765D01*
X158211227Y-93184804D01*
X158235496Y-93181204D01*
X158260000Y-93180000D01*
X161260000Y-93180000D01*
X161284504Y-93181204D01*
X161284504Y-93181204D01*
G37*
D13*
X159760000Y-93980000D03*
M02*
