G04 #@! TF.GenerationSoftware,KiCad,Pcbnew,(5.1.2)-1*
G04 #@! TF.CreationDate,2019-06-03T12:51:13-05:00*
G04 #@! TF.ProjectId,1stCircuit,31737443-6972-4637-9569-742e6b696361,rev?*
G04 #@! TF.SameCoordinates,Original*
G04 #@! TF.FileFunction,Copper,L1,Top*
G04 #@! TF.FilePolarity,Positive*
%FSLAX46Y46*%
G04 Gerber Fmt 4.6, Leading zero omitted, Abs format (unit mm)*
G04 Created by KiCad (PCBNEW (5.1.2)-1) date 2019-06-03 12:51:13*
%MOMM*%
%LPD*%
G04 APERTURE LIST*
%ADD10C,2.540000*%
%ADD11C,2.500000*%
%ADD12C,0.100000*%
%ADD13C,1.575000*%
%ADD14R,1.500000X1.050000*%
%ADD15O,1.500000X1.050000*%
%ADD16C,1.250000*%
%ADD17C,1.600000*%
%ADD18C,0.800000*%
%ADD19C,0.250000*%
%ADD20C,0.254000*%
G04 APERTURE END LIST*
D10*
X149230000Y-95250000D03*
D11*
X139700000Y-95250000D03*
D12*
G36*
X144381505Y-103749204D02*
G01*
X144405773Y-103752804D01*
X144429572Y-103758765D01*
X144452671Y-103767030D01*
X144474850Y-103777520D01*
X144495893Y-103790132D01*
X144515599Y-103804747D01*
X144533777Y-103821223D01*
X144550253Y-103839401D01*
X144564868Y-103859107D01*
X144577480Y-103880150D01*
X144587970Y-103902329D01*
X144596235Y-103925428D01*
X144602196Y-103949227D01*
X144605796Y-103973495D01*
X144607000Y-103997999D01*
X144607000Y-105298001D01*
X144605796Y-105322505D01*
X144602196Y-105346773D01*
X144596235Y-105370572D01*
X144587970Y-105393671D01*
X144577480Y-105415850D01*
X144564868Y-105436893D01*
X144550253Y-105456599D01*
X144533777Y-105474777D01*
X144515599Y-105491253D01*
X144495893Y-105505868D01*
X144474850Y-105518480D01*
X144452671Y-105528970D01*
X144429572Y-105537235D01*
X144405773Y-105543196D01*
X144381505Y-105546796D01*
X144357001Y-105548000D01*
X143281999Y-105548000D01*
X143257495Y-105546796D01*
X143233227Y-105543196D01*
X143209428Y-105537235D01*
X143186329Y-105528970D01*
X143164150Y-105518480D01*
X143143107Y-105505868D01*
X143123401Y-105491253D01*
X143105223Y-105474777D01*
X143088747Y-105456599D01*
X143074132Y-105436893D01*
X143061520Y-105415850D01*
X143051030Y-105393671D01*
X143042765Y-105370572D01*
X143036804Y-105346773D01*
X143033204Y-105322505D01*
X143032000Y-105298001D01*
X143032000Y-103997999D01*
X143033204Y-103973495D01*
X143036804Y-103949227D01*
X143042765Y-103925428D01*
X143051030Y-103902329D01*
X143061520Y-103880150D01*
X143074132Y-103859107D01*
X143088747Y-103839401D01*
X143105223Y-103821223D01*
X143123401Y-103804747D01*
X143143107Y-103790132D01*
X143164150Y-103777520D01*
X143186329Y-103767030D01*
X143209428Y-103758765D01*
X143233227Y-103752804D01*
X143257495Y-103749204D01*
X143281999Y-103748000D01*
X144357001Y-103748000D01*
X144381505Y-103749204D01*
X144381505Y-103749204D01*
G37*
D13*
X143819500Y-104648000D03*
D12*
G36*
X140206505Y-103749204D02*
G01*
X140230773Y-103752804D01*
X140254572Y-103758765D01*
X140277671Y-103767030D01*
X140299850Y-103777520D01*
X140320893Y-103790132D01*
X140340599Y-103804747D01*
X140358777Y-103821223D01*
X140375253Y-103839401D01*
X140389868Y-103859107D01*
X140402480Y-103880150D01*
X140412970Y-103902329D01*
X140421235Y-103925428D01*
X140427196Y-103949227D01*
X140430796Y-103973495D01*
X140432000Y-103997999D01*
X140432000Y-105298001D01*
X140430796Y-105322505D01*
X140427196Y-105346773D01*
X140421235Y-105370572D01*
X140412970Y-105393671D01*
X140402480Y-105415850D01*
X140389868Y-105436893D01*
X140375253Y-105456599D01*
X140358777Y-105474777D01*
X140340599Y-105491253D01*
X140320893Y-105505868D01*
X140299850Y-105518480D01*
X140277671Y-105528970D01*
X140254572Y-105537235D01*
X140230773Y-105543196D01*
X140206505Y-105546796D01*
X140182001Y-105548000D01*
X139106999Y-105548000D01*
X139082495Y-105546796D01*
X139058227Y-105543196D01*
X139034428Y-105537235D01*
X139011329Y-105528970D01*
X138989150Y-105518480D01*
X138968107Y-105505868D01*
X138948401Y-105491253D01*
X138930223Y-105474777D01*
X138913747Y-105456599D01*
X138899132Y-105436893D01*
X138886520Y-105415850D01*
X138876030Y-105393671D01*
X138867765Y-105370572D01*
X138861804Y-105346773D01*
X138858204Y-105322505D01*
X138857000Y-105298001D01*
X138857000Y-103997999D01*
X138858204Y-103973495D01*
X138861804Y-103949227D01*
X138867765Y-103925428D01*
X138876030Y-103902329D01*
X138886520Y-103880150D01*
X138899132Y-103859107D01*
X138913747Y-103839401D01*
X138930223Y-103821223D01*
X138948401Y-103804747D01*
X138968107Y-103790132D01*
X138989150Y-103777520D01*
X139011329Y-103767030D01*
X139034428Y-103758765D01*
X139058227Y-103752804D01*
X139082495Y-103749204D01*
X139106999Y-103748000D01*
X140182001Y-103748000D01*
X140206505Y-103749204D01*
X140206505Y-103749204D01*
G37*
D13*
X139644500Y-104648000D03*
D14*
X163068000Y-105664000D03*
D15*
X163068000Y-103124000D03*
X163068000Y-104394000D03*
D14*
X156718000Y-105664000D03*
D15*
X156718000Y-103124000D03*
X156718000Y-104394000D03*
D12*
G36*
X151405504Y-105298204D02*
G01*
X151429773Y-105301804D01*
X151453571Y-105307765D01*
X151476671Y-105316030D01*
X151498849Y-105326520D01*
X151519893Y-105339133D01*
X151539598Y-105353747D01*
X151557777Y-105370223D01*
X151574253Y-105388402D01*
X151588867Y-105408107D01*
X151601480Y-105429151D01*
X151611970Y-105451329D01*
X151620235Y-105474429D01*
X151626196Y-105498227D01*
X151629796Y-105522496D01*
X151631000Y-105547000D01*
X151631000Y-106797000D01*
X151629796Y-106821504D01*
X151626196Y-106845773D01*
X151620235Y-106869571D01*
X151611970Y-106892671D01*
X151601480Y-106914849D01*
X151588867Y-106935893D01*
X151574253Y-106955598D01*
X151557777Y-106973777D01*
X151539598Y-106990253D01*
X151519893Y-107004867D01*
X151498849Y-107017480D01*
X151476671Y-107027970D01*
X151453571Y-107036235D01*
X151429773Y-107042196D01*
X151405504Y-107045796D01*
X151381000Y-107047000D01*
X150631000Y-107047000D01*
X150606496Y-107045796D01*
X150582227Y-107042196D01*
X150558429Y-107036235D01*
X150535329Y-107027970D01*
X150513151Y-107017480D01*
X150492107Y-107004867D01*
X150472402Y-106990253D01*
X150454223Y-106973777D01*
X150437747Y-106955598D01*
X150423133Y-106935893D01*
X150410520Y-106914849D01*
X150400030Y-106892671D01*
X150391765Y-106869571D01*
X150385804Y-106845773D01*
X150382204Y-106821504D01*
X150381000Y-106797000D01*
X150381000Y-105547000D01*
X150382204Y-105522496D01*
X150385804Y-105498227D01*
X150391765Y-105474429D01*
X150400030Y-105451329D01*
X150410520Y-105429151D01*
X150423133Y-105408107D01*
X150437747Y-105388402D01*
X150454223Y-105370223D01*
X150472402Y-105353747D01*
X150492107Y-105339133D01*
X150513151Y-105326520D01*
X150535329Y-105316030D01*
X150558429Y-105307765D01*
X150582227Y-105301804D01*
X150606496Y-105298204D01*
X150631000Y-105297000D01*
X151381000Y-105297000D01*
X151405504Y-105298204D01*
X151405504Y-105298204D01*
G37*
D16*
X151006000Y-106172000D03*
D12*
G36*
X148605504Y-105298204D02*
G01*
X148629773Y-105301804D01*
X148653571Y-105307765D01*
X148676671Y-105316030D01*
X148698849Y-105326520D01*
X148719893Y-105339133D01*
X148739598Y-105353747D01*
X148757777Y-105370223D01*
X148774253Y-105388402D01*
X148788867Y-105408107D01*
X148801480Y-105429151D01*
X148811970Y-105451329D01*
X148820235Y-105474429D01*
X148826196Y-105498227D01*
X148829796Y-105522496D01*
X148831000Y-105547000D01*
X148831000Y-106797000D01*
X148829796Y-106821504D01*
X148826196Y-106845773D01*
X148820235Y-106869571D01*
X148811970Y-106892671D01*
X148801480Y-106914849D01*
X148788867Y-106935893D01*
X148774253Y-106955598D01*
X148757777Y-106973777D01*
X148739598Y-106990253D01*
X148719893Y-107004867D01*
X148698849Y-107017480D01*
X148676671Y-107027970D01*
X148653571Y-107036235D01*
X148629773Y-107042196D01*
X148605504Y-107045796D01*
X148581000Y-107047000D01*
X147831000Y-107047000D01*
X147806496Y-107045796D01*
X147782227Y-107042196D01*
X147758429Y-107036235D01*
X147735329Y-107027970D01*
X147713151Y-107017480D01*
X147692107Y-107004867D01*
X147672402Y-106990253D01*
X147654223Y-106973777D01*
X147637747Y-106955598D01*
X147623133Y-106935893D01*
X147610520Y-106914849D01*
X147600030Y-106892671D01*
X147591765Y-106869571D01*
X147585804Y-106845773D01*
X147582204Y-106821504D01*
X147581000Y-106797000D01*
X147581000Y-105547000D01*
X147582204Y-105522496D01*
X147585804Y-105498227D01*
X147591765Y-105474429D01*
X147600030Y-105451329D01*
X147610520Y-105429151D01*
X147623133Y-105408107D01*
X147637747Y-105388402D01*
X147654223Y-105370223D01*
X147672402Y-105353747D01*
X147692107Y-105339133D01*
X147713151Y-105326520D01*
X147735329Y-105316030D01*
X147758429Y-105307765D01*
X147782227Y-105301804D01*
X147806496Y-105298204D01*
X147831000Y-105297000D01*
X148581000Y-105297000D01*
X148605504Y-105298204D01*
X148605504Y-105298204D01*
G37*
D16*
X148206000Y-106172000D03*
D12*
G36*
X166884504Y-93181204D02*
G01*
X166908773Y-93184804D01*
X166932571Y-93190765D01*
X166955671Y-93199030D01*
X166977849Y-93209520D01*
X166998893Y-93222133D01*
X167018598Y-93236747D01*
X167036777Y-93253223D01*
X167053253Y-93271402D01*
X167067867Y-93291107D01*
X167080480Y-93312151D01*
X167090970Y-93334329D01*
X167099235Y-93357429D01*
X167105196Y-93381227D01*
X167108796Y-93405496D01*
X167110000Y-93430000D01*
X167110000Y-94530000D01*
X167108796Y-94554504D01*
X167105196Y-94578773D01*
X167099235Y-94602571D01*
X167090970Y-94625671D01*
X167080480Y-94647849D01*
X167067867Y-94668893D01*
X167053253Y-94688598D01*
X167036777Y-94706777D01*
X167018598Y-94723253D01*
X166998893Y-94737867D01*
X166977849Y-94750480D01*
X166955671Y-94760970D01*
X166932571Y-94769235D01*
X166908773Y-94775196D01*
X166884504Y-94778796D01*
X166860000Y-94780000D01*
X163860000Y-94780000D01*
X163835496Y-94778796D01*
X163811227Y-94775196D01*
X163787429Y-94769235D01*
X163764329Y-94760970D01*
X163742151Y-94750480D01*
X163721107Y-94737867D01*
X163701402Y-94723253D01*
X163683223Y-94706777D01*
X163666747Y-94688598D01*
X163652133Y-94668893D01*
X163639520Y-94647849D01*
X163629030Y-94625671D01*
X163620765Y-94602571D01*
X163614804Y-94578773D01*
X163611204Y-94554504D01*
X163610000Y-94530000D01*
X163610000Y-93430000D01*
X163611204Y-93405496D01*
X163614804Y-93381227D01*
X163620765Y-93357429D01*
X163629030Y-93334329D01*
X163639520Y-93312151D01*
X163652133Y-93291107D01*
X163666747Y-93271402D01*
X163683223Y-93253223D01*
X163701402Y-93236747D01*
X163721107Y-93222133D01*
X163742151Y-93209520D01*
X163764329Y-93199030D01*
X163787429Y-93190765D01*
X163811227Y-93184804D01*
X163835496Y-93181204D01*
X163860000Y-93180000D01*
X166860000Y-93180000D01*
X166884504Y-93181204D01*
X166884504Y-93181204D01*
G37*
D17*
X165360000Y-93980000D03*
D12*
G36*
X161284504Y-93181204D02*
G01*
X161308773Y-93184804D01*
X161332571Y-93190765D01*
X161355671Y-93199030D01*
X161377849Y-93209520D01*
X161398893Y-93222133D01*
X161418598Y-93236747D01*
X161436777Y-93253223D01*
X161453253Y-93271402D01*
X161467867Y-93291107D01*
X161480480Y-93312151D01*
X161490970Y-93334329D01*
X161499235Y-93357429D01*
X161505196Y-93381227D01*
X161508796Y-93405496D01*
X161510000Y-93430000D01*
X161510000Y-94530000D01*
X161508796Y-94554504D01*
X161505196Y-94578773D01*
X161499235Y-94602571D01*
X161490970Y-94625671D01*
X161480480Y-94647849D01*
X161467867Y-94668893D01*
X161453253Y-94688598D01*
X161436777Y-94706777D01*
X161418598Y-94723253D01*
X161398893Y-94737867D01*
X161377849Y-94750480D01*
X161355671Y-94760970D01*
X161332571Y-94769235D01*
X161308773Y-94775196D01*
X161284504Y-94778796D01*
X161260000Y-94780000D01*
X158260000Y-94780000D01*
X158235496Y-94778796D01*
X158211227Y-94775196D01*
X158187429Y-94769235D01*
X158164329Y-94760970D01*
X158142151Y-94750480D01*
X158121107Y-94737867D01*
X158101402Y-94723253D01*
X158083223Y-94706777D01*
X158066747Y-94688598D01*
X158052133Y-94668893D01*
X158039520Y-94647849D01*
X158029030Y-94625671D01*
X158020765Y-94602571D01*
X158014804Y-94578773D01*
X158011204Y-94554504D01*
X158010000Y-94530000D01*
X158010000Y-93430000D01*
X158011204Y-93405496D01*
X158014804Y-93381227D01*
X158020765Y-93357429D01*
X158029030Y-93334329D01*
X158039520Y-93312151D01*
X158052133Y-93291107D01*
X158066747Y-93271402D01*
X158083223Y-93253223D01*
X158101402Y-93236747D01*
X158121107Y-93222133D01*
X158142151Y-93209520D01*
X158164329Y-93199030D01*
X158187429Y-93190765D01*
X158211227Y-93184804D01*
X158235496Y-93181204D01*
X158260000Y-93180000D01*
X161260000Y-93180000D01*
X161284504Y-93181204D01*
X161284504Y-93181204D01*
G37*
D17*
X159760000Y-93980000D03*
D18*
X165354000Y-96012000D03*
D19*
X165360000Y-96006000D02*
X165354000Y-96012000D01*
X165360000Y-93980000D02*
X165360000Y-96006000D01*
X139700000Y-104592500D02*
X139644500Y-104648000D01*
X145343500Y-103124000D02*
X156718000Y-103124000D01*
X143819500Y-104648000D02*
X145343500Y-103124000D01*
X156718000Y-97022000D02*
X159760000Y-93980000D01*
X156718000Y-103124000D02*
X156718000Y-97022000D01*
X155642999Y-104469001D02*
X155718000Y-104394000D01*
X155707999Y-106514001D02*
X155642999Y-106449001D01*
X161217999Y-106514001D02*
X155707999Y-106514001D01*
X155718000Y-104394000D02*
X156718000Y-104394000D01*
X162068000Y-105664000D02*
X161217999Y-106514001D01*
X163068000Y-105664000D02*
X162068000Y-105664000D01*
X154501990Y-107372010D02*
X155642999Y-106231001D01*
X149406010Y-107372010D02*
X154501990Y-107372010D01*
X148206000Y-106172000D02*
X149406010Y-107372010D01*
X155642999Y-106449001D02*
X155642999Y-106231001D01*
X155642999Y-106231001D02*
X155642999Y-104469001D01*
X157718000Y-105664000D02*
X156718000Y-105664000D01*
X160798000Y-105664000D02*
X157718000Y-105664000D01*
X162068000Y-104394000D02*
X160798000Y-105664000D01*
X163068000Y-104394000D02*
X162068000Y-104394000D01*
D20*
G36*
X167513000Y-92832547D02*
G01*
X167487962Y-92802038D01*
X167353386Y-92691595D01*
X167199850Y-92609528D01*
X167033254Y-92558992D01*
X166860000Y-92541928D01*
X163860000Y-92541928D01*
X163686746Y-92558992D01*
X163520150Y-92609528D01*
X163366614Y-92691595D01*
X163232038Y-92802038D01*
X163121595Y-92936614D01*
X163039528Y-93090150D01*
X162988992Y-93256746D01*
X162971928Y-93430000D01*
X162971928Y-94530000D01*
X162988992Y-94703254D01*
X163039528Y-94869850D01*
X163121595Y-95023386D01*
X163232038Y-95157962D01*
X163366614Y-95268405D01*
X163520150Y-95350472D01*
X163686746Y-95401008D01*
X163860000Y-95418072D01*
X164506066Y-95418072D01*
X164436795Y-95521744D01*
X164358774Y-95710102D01*
X164319000Y-95910061D01*
X164319000Y-96113939D01*
X164358774Y-96313898D01*
X164436795Y-96502256D01*
X164550063Y-96671774D01*
X164694226Y-96815937D01*
X164863744Y-96929205D01*
X165052102Y-97007226D01*
X165252061Y-97047000D01*
X165455939Y-97047000D01*
X165655898Y-97007226D01*
X165844256Y-96929205D01*
X166013774Y-96815937D01*
X166157937Y-96671774D01*
X166271205Y-96502256D01*
X166349226Y-96313898D01*
X166389000Y-96113939D01*
X166389000Y-95910061D01*
X166349226Y-95710102D01*
X166271205Y-95521744D01*
X166201934Y-95418072D01*
X166860000Y-95418072D01*
X167033254Y-95401008D01*
X167199850Y-95350472D01*
X167353386Y-95268405D01*
X167487962Y-95157962D01*
X167513000Y-95127453D01*
X167513000Y-108331000D01*
X137541000Y-108331000D01*
X137541000Y-105548000D01*
X138218928Y-105548000D01*
X138231188Y-105672482D01*
X138267498Y-105792180D01*
X138326463Y-105902494D01*
X138405815Y-105999185D01*
X138502506Y-106078537D01*
X138612820Y-106137502D01*
X138732518Y-106173812D01*
X138857000Y-106186072D01*
X139358750Y-106183000D01*
X139517500Y-106024250D01*
X139517500Y-104775000D01*
X139771500Y-104775000D01*
X139771500Y-106024250D01*
X139930250Y-106183000D01*
X140432000Y-106186072D01*
X140556482Y-106173812D01*
X140676180Y-106137502D01*
X140786494Y-106078537D01*
X140883185Y-105999185D01*
X140962537Y-105902494D01*
X141021502Y-105792180D01*
X141057812Y-105672482D01*
X141070072Y-105548000D01*
X141067000Y-104933750D01*
X140908250Y-104775000D01*
X139771500Y-104775000D01*
X139517500Y-104775000D01*
X138380750Y-104775000D01*
X138222000Y-104933750D01*
X138218928Y-105548000D01*
X137541000Y-105548000D01*
X137541000Y-103748000D01*
X138218928Y-103748000D01*
X138222000Y-104362250D01*
X138380750Y-104521000D01*
X139517500Y-104521000D01*
X139517500Y-103271750D01*
X139771500Y-103271750D01*
X139771500Y-104521000D01*
X140908250Y-104521000D01*
X141067000Y-104362250D01*
X141068821Y-103997999D01*
X142393928Y-103997999D01*
X142393928Y-105298001D01*
X142410992Y-105471255D01*
X142461528Y-105637851D01*
X142543595Y-105791387D01*
X142654038Y-105925962D01*
X142788613Y-106036405D01*
X142942149Y-106118472D01*
X143108745Y-106169008D01*
X143281999Y-106186072D01*
X144357001Y-106186072D01*
X144530255Y-106169008D01*
X144696851Y-106118472D01*
X144850387Y-106036405D01*
X144984962Y-105925962D01*
X145095405Y-105791387D01*
X145177472Y-105637851D01*
X145228008Y-105471255D01*
X145245072Y-105298001D01*
X145245072Y-104297230D01*
X145658303Y-103884000D01*
X155153198Y-103884000D01*
X155131995Y-103905204D01*
X155102999Y-103929000D01*
X155079201Y-103957998D01*
X155079200Y-103957999D01*
X155008025Y-104044725D01*
X154937453Y-104176755D01*
X154893997Y-104320016D01*
X154879323Y-104469001D01*
X154883000Y-104506333D01*
X154882999Y-105916198D01*
X154187189Y-106612010D01*
X152266804Y-106612010D01*
X152266000Y-106457750D01*
X152107250Y-106299000D01*
X151133000Y-106299000D01*
X151133000Y-106319000D01*
X150879000Y-106319000D01*
X150879000Y-106299000D01*
X149904750Y-106299000D01*
X149746000Y-106457750D01*
X149745196Y-106612010D01*
X149720813Y-106612010D01*
X149469072Y-106360270D01*
X149469072Y-105547000D01*
X149452008Y-105373746D01*
X149428728Y-105297000D01*
X149742928Y-105297000D01*
X149746000Y-105886250D01*
X149904750Y-106045000D01*
X150879000Y-106045000D01*
X150879000Y-104820750D01*
X151133000Y-104820750D01*
X151133000Y-106045000D01*
X152107250Y-106045000D01*
X152266000Y-105886250D01*
X152269072Y-105297000D01*
X152256812Y-105172518D01*
X152220502Y-105052820D01*
X152161537Y-104942506D01*
X152082185Y-104845815D01*
X151985494Y-104766463D01*
X151875180Y-104707498D01*
X151755482Y-104671188D01*
X151631000Y-104658928D01*
X151291750Y-104662000D01*
X151133000Y-104820750D01*
X150879000Y-104820750D01*
X150720250Y-104662000D01*
X150381000Y-104658928D01*
X150256518Y-104671188D01*
X150136820Y-104707498D01*
X150026506Y-104766463D01*
X149929815Y-104845815D01*
X149850463Y-104942506D01*
X149791498Y-105052820D01*
X149755188Y-105172518D01*
X149742928Y-105297000D01*
X149428728Y-105297000D01*
X149401472Y-105207150D01*
X149319405Y-105053614D01*
X149208962Y-104919038D01*
X149074386Y-104808595D01*
X148920850Y-104726528D01*
X148754254Y-104675992D01*
X148581000Y-104658928D01*
X147831000Y-104658928D01*
X147657746Y-104675992D01*
X147491150Y-104726528D01*
X147337614Y-104808595D01*
X147203038Y-104919038D01*
X147092595Y-105053614D01*
X147010528Y-105207150D01*
X146959992Y-105373746D01*
X146942928Y-105547000D01*
X146942928Y-106797000D01*
X146959992Y-106970254D01*
X147010528Y-107136850D01*
X147092595Y-107290386D01*
X147203038Y-107424962D01*
X147337614Y-107535405D01*
X147491150Y-107617472D01*
X147657746Y-107668008D01*
X147831000Y-107685072D01*
X148581000Y-107685072D01*
X148638597Y-107679399D01*
X148842215Y-107883018D01*
X148866009Y-107912011D01*
X148895002Y-107935805D01*
X148895006Y-107935809D01*
X148955775Y-107985680D01*
X148981734Y-108006984D01*
X149113763Y-108077556D01*
X149257024Y-108121013D01*
X149368677Y-108132010D01*
X149368686Y-108132010D01*
X149406009Y-108135686D01*
X149443332Y-108132010D01*
X154464668Y-108132010D01*
X154501990Y-108135686D01*
X154539312Y-108132010D01*
X154539323Y-108132010D01*
X154650976Y-108121013D01*
X154794237Y-108077556D01*
X154926266Y-108006984D01*
X155041991Y-107912011D01*
X155065793Y-107883008D01*
X155674431Y-107274371D01*
X155707999Y-107277677D01*
X155745322Y-107274001D01*
X161180677Y-107274001D01*
X161217999Y-107277677D01*
X161255321Y-107274001D01*
X161255332Y-107274001D01*
X161366985Y-107263004D01*
X161510246Y-107219547D01*
X161642275Y-107148975D01*
X161758000Y-107054002D01*
X161781802Y-107024999D01*
X162044156Y-106762646D01*
X162073820Y-106778502D01*
X162193518Y-106814812D01*
X162318000Y-106827072D01*
X163818000Y-106827072D01*
X163942482Y-106814812D01*
X164062180Y-106778502D01*
X164172494Y-106719537D01*
X164269185Y-106640185D01*
X164348537Y-106543494D01*
X164407502Y-106433180D01*
X164443812Y-106313482D01*
X164456072Y-106189000D01*
X164456072Y-105139000D01*
X164443812Y-105014518D01*
X164407502Y-104894820D01*
X164372907Y-104830098D01*
X164436215Y-104621400D01*
X164458612Y-104394000D01*
X164436215Y-104166600D01*
X164369885Y-103947940D01*
X164268895Y-103759000D01*
X164369885Y-103570060D01*
X164436215Y-103351400D01*
X164458612Y-103124000D01*
X164436215Y-102896600D01*
X164369885Y-102677940D01*
X164262171Y-102476421D01*
X164117212Y-102299788D01*
X163940579Y-102154829D01*
X163739060Y-102047115D01*
X163520400Y-101980785D01*
X163349979Y-101964000D01*
X162786021Y-101964000D01*
X162615600Y-101980785D01*
X162396940Y-102047115D01*
X162195421Y-102154829D01*
X162018788Y-102299788D01*
X161873829Y-102476421D01*
X161766115Y-102677940D01*
X161699785Y-102896600D01*
X161677388Y-103124000D01*
X161699785Y-103351400D01*
X161766115Y-103570060D01*
X161821913Y-103674452D01*
X161775753Y-103688454D01*
X161643724Y-103759026D01*
X161527999Y-103853999D01*
X161504201Y-103882997D01*
X160483199Y-104904000D01*
X158060287Y-104904000D01*
X158057502Y-104894820D01*
X158022907Y-104830098D01*
X158086215Y-104621400D01*
X158108612Y-104394000D01*
X158086215Y-104166600D01*
X158019885Y-103947940D01*
X157918895Y-103759000D01*
X158019885Y-103570060D01*
X158086215Y-103351400D01*
X158108612Y-103124000D01*
X158086215Y-102896600D01*
X158019885Y-102677940D01*
X157912171Y-102476421D01*
X157767212Y-102299788D01*
X157590579Y-102154829D01*
X157478000Y-102094654D01*
X157478000Y-97336801D01*
X159396730Y-95418072D01*
X161260000Y-95418072D01*
X161433254Y-95401008D01*
X161599850Y-95350472D01*
X161753386Y-95268405D01*
X161887962Y-95157962D01*
X161998405Y-95023386D01*
X162080472Y-94869850D01*
X162131008Y-94703254D01*
X162148072Y-94530000D01*
X162148072Y-93430000D01*
X162131008Y-93256746D01*
X162080472Y-93090150D01*
X161998405Y-92936614D01*
X161887962Y-92802038D01*
X161753386Y-92691595D01*
X161599850Y-92609528D01*
X161433254Y-92558992D01*
X161260000Y-92541928D01*
X158260000Y-92541928D01*
X158086746Y-92558992D01*
X157920150Y-92609528D01*
X157766614Y-92691595D01*
X157632038Y-92802038D01*
X157521595Y-92936614D01*
X157439528Y-93090150D01*
X157388992Y-93256746D01*
X157371928Y-93430000D01*
X157371928Y-94530000D01*
X157388992Y-94703254D01*
X157439528Y-94869850D01*
X157521595Y-95023386D01*
X157575783Y-95089415D01*
X156206998Y-96458201D01*
X156178000Y-96481999D01*
X156154202Y-96510997D01*
X156154201Y-96510998D01*
X156083026Y-96597724D01*
X156012454Y-96729754D01*
X155968998Y-96873015D01*
X155954324Y-97022000D01*
X155958001Y-97059332D01*
X155958000Y-102094654D01*
X155845421Y-102154829D01*
X155668788Y-102299788D01*
X155616091Y-102364000D01*
X145380822Y-102364000D01*
X145343499Y-102360324D01*
X145306176Y-102364000D01*
X145306167Y-102364000D01*
X145194514Y-102374997D01*
X145051253Y-102418454D01*
X144919224Y-102489026D01*
X144919222Y-102489027D01*
X144919223Y-102489027D01*
X144832496Y-102560201D01*
X144832492Y-102560205D01*
X144803499Y-102583999D01*
X144779705Y-102612992D01*
X144282770Y-103109928D01*
X143281999Y-103109928D01*
X143108745Y-103126992D01*
X142942149Y-103177528D01*
X142788613Y-103259595D01*
X142654038Y-103370038D01*
X142543595Y-103504613D01*
X142461528Y-103658149D01*
X142410992Y-103824745D01*
X142393928Y-103997999D01*
X141068821Y-103997999D01*
X141070072Y-103748000D01*
X141057812Y-103623518D01*
X141021502Y-103503820D01*
X140962537Y-103393506D01*
X140883185Y-103296815D01*
X140786494Y-103217463D01*
X140676180Y-103158498D01*
X140556482Y-103122188D01*
X140432000Y-103109928D01*
X139930250Y-103113000D01*
X139771500Y-103271750D01*
X139517500Y-103271750D01*
X139358750Y-103113000D01*
X138857000Y-103109928D01*
X138732518Y-103122188D01*
X138612820Y-103158498D01*
X138502506Y-103217463D01*
X138405815Y-103296815D01*
X138326463Y-103393506D01*
X138267498Y-103503820D01*
X138231188Y-103623518D01*
X138218928Y-103748000D01*
X137541000Y-103748000D01*
X137541000Y-96563605D01*
X138566000Y-96563605D01*
X138691914Y-96853577D01*
X139024126Y-97019433D01*
X139382312Y-97117290D01*
X139752706Y-97143389D01*
X140121075Y-97096725D01*
X140473262Y-96979094D01*
X140708086Y-96853577D01*
X140834000Y-96563605D01*
X139700000Y-95429605D01*
X138566000Y-96563605D01*
X137541000Y-96563605D01*
X137541000Y-95302706D01*
X137806611Y-95302706D01*
X137853275Y-95671075D01*
X137970906Y-96023262D01*
X138096423Y-96258086D01*
X138386395Y-96384000D01*
X139520395Y-95250000D01*
X139879605Y-95250000D01*
X141013605Y-96384000D01*
X141303577Y-96258086D01*
X141469433Y-95925874D01*
X141567290Y-95567688D01*
X141593389Y-95197294D01*
X141576298Y-95062374D01*
X147325000Y-95062374D01*
X147325000Y-95437626D01*
X147398209Y-95805668D01*
X147541811Y-96152356D01*
X147750290Y-96464366D01*
X148015634Y-96729710D01*
X148327644Y-96938189D01*
X148674332Y-97081791D01*
X149042374Y-97155000D01*
X149417626Y-97155000D01*
X149785668Y-97081791D01*
X150132356Y-96938189D01*
X150444366Y-96729710D01*
X150709710Y-96464366D01*
X150918189Y-96152356D01*
X151061791Y-95805668D01*
X151135000Y-95437626D01*
X151135000Y-95062374D01*
X151061791Y-94694332D01*
X150918189Y-94347644D01*
X150709710Y-94035634D01*
X150444366Y-93770290D01*
X150132356Y-93561811D01*
X149785668Y-93418209D01*
X149417626Y-93345000D01*
X149042374Y-93345000D01*
X148674332Y-93418209D01*
X148327644Y-93561811D01*
X148015634Y-93770290D01*
X147750290Y-94035634D01*
X147541811Y-94347644D01*
X147398209Y-94694332D01*
X147325000Y-95062374D01*
X141576298Y-95062374D01*
X141546725Y-94828925D01*
X141429094Y-94476738D01*
X141303577Y-94241914D01*
X141013605Y-94116000D01*
X139879605Y-95250000D01*
X139520395Y-95250000D01*
X138386395Y-94116000D01*
X138096423Y-94241914D01*
X137930567Y-94574126D01*
X137832710Y-94932312D01*
X137806611Y-95302706D01*
X137541000Y-95302706D01*
X137541000Y-93936395D01*
X138566000Y-93936395D01*
X139700000Y-95070395D01*
X140834000Y-93936395D01*
X140708086Y-93646423D01*
X140375874Y-93480567D01*
X140017688Y-93382710D01*
X139647294Y-93356611D01*
X139278925Y-93403275D01*
X138926738Y-93520906D01*
X138691914Y-93646423D01*
X138566000Y-93936395D01*
X137541000Y-93936395D01*
X137541000Y-88265000D01*
X167513000Y-88265000D01*
X167513000Y-92832547D01*
X167513000Y-92832547D01*
G37*
X167513000Y-92832547D02*
X167487962Y-92802038D01*
X167353386Y-92691595D01*
X167199850Y-92609528D01*
X167033254Y-92558992D01*
X166860000Y-92541928D01*
X163860000Y-92541928D01*
X163686746Y-92558992D01*
X163520150Y-92609528D01*
X163366614Y-92691595D01*
X163232038Y-92802038D01*
X163121595Y-92936614D01*
X163039528Y-93090150D01*
X162988992Y-93256746D01*
X162971928Y-93430000D01*
X162971928Y-94530000D01*
X162988992Y-94703254D01*
X163039528Y-94869850D01*
X163121595Y-95023386D01*
X163232038Y-95157962D01*
X163366614Y-95268405D01*
X163520150Y-95350472D01*
X163686746Y-95401008D01*
X163860000Y-95418072D01*
X164506066Y-95418072D01*
X164436795Y-95521744D01*
X164358774Y-95710102D01*
X164319000Y-95910061D01*
X164319000Y-96113939D01*
X164358774Y-96313898D01*
X164436795Y-96502256D01*
X164550063Y-96671774D01*
X164694226Y-96815937D01*
X164863744Y-96929205D01*
X165052102Y-97007226D01*
X165252061Y-97047000D01*
X165455939Y-97047000D01*
X165655898Y-97007226D01*
X165844256Y-96929205D01*
X166013774Y-96815937D01*
X166157937Y-96671774D01*
X166271205Y-96502256D01*
X166349226Y-96313898D01*
X166389000Y-96113939D01*
X166389000Y-95910061D01*
X166349226Y-95710102D01*
X166271205Y-95521744D01*
X166201934Y-95418072D01*
X166860000Y-95418072D01*
X167033254Y-95401008D01*
X167199850Y-95350472D01*
X167353386Y-95268405D01*
X167487962Y-95157962D01*
X167513000Y-95127453D01*
X167513000Y-108331000D01*
X137541000Y-108331000D01*
X137541000Y-105548000D01*
X138218928Y-105548000D01*
X138231188Y-105672482D01*
X138267498Y-105792180D01*
X138326463Y-105902494D01*
X138405815Y-105999185D01*
X138502506Y-106078537D01*
X138612820Y-106137502D01*
X138732518Y-106173812D01*
X138857000Y-106186072D01*
X139358750Y-106183000D01*
X139517500Y-106024250D01*
X139517500Y-104775000D01*
X139771500Y-104775000D01*
X139771500Y-106024250D01*
X139930250Y-106183000D01*
X140432000Y-106186072D01*
X140556482Y-106173812D01*
X140676180Y-106137502D01*
X140786494Y-106078537D01*
X140883185Y-105999185D01*
X140962537Y-105902494D01*
X141021502Y-105792180D01*
X141057812Y-105672482D01*
X141070072Y-105548000D01*
X141067000Y-104933750D01*
X140908250Y-104775000D01*
X139771500Y-104775000D01*
X139517500Y-104775000D01*
X138380750Y-104775000D01*
X138222000Y-104933750D01*
X138218928Y-105548000D01*
X137541000Y-105548000D01*
X137541000Y-103748000D01*
X138218928Y-103748000D01*
X138222000Y-104362250D01*
X138380750Y-104521000D01*
X139517500Y-104521000D01*
X139517500Y-103271750D01*
X139771500Y-103271750D01*
X139771500Y-104521000D01*
X140908250Y-104521000D01*
X141067000Y-104362250D01*
X141068821Y-103997999D01*
X142393928Y-103997999D01*
X142393928Y-105298001D01*
X142410992Y-105471255D01*
X142461528Y-105637851D01*
X142543595Y-105791387D01*
X142654038Y-105925962D01*
X142788613Y-106036405D01*
X142942149Y-106118472D01*
X143108745Y-106169008D01*
X143281999Y-106186072D01*
X144357001Y-106186072D01*
X144530255Y-106169008D01*
X144696851Y-106118472D01*
X144850387Y-106036405D01*
X144984962Y-105925962D01*
X145095405Y-105791387D01*
X145177472Y-105637851D01*
X145228008Y-105471255D01*
X145245072Y-105298001D01*
X145245072Y-104297230D01*
X145658303Y-103884000D01*
X155153198Y-103884000D01*
X155131995Y-103905204D01*
X155102999Y-103929000D01*
X155079201Y-103957998D01*
X155079200Y-103957999D01*
X155008025Y-104044725D01*
X154937453Y-104176755D01*
X154893997Y-104320016D01*
X154879323Y-104469001D01*
X154883000Y-104506333D01*
X154882999Y-105916198D01*
X154187189Y-106612010D01*
X152266804Y-106612010D01*
X152266000Y-106457750D01*
X152107250Y-106299000D01*
X151133000Y-106299000D01*
X151133000Y-106319000D01*
X150879000Y-106319000D01*
X150879000Y-106299000D01*
X149904750Y-106299000D01*
X149746000Y-106457750D01*
X149745196Y-106612010D01*
X149720813Y-106612010D01*
X149469072Y-106360270D01*
X149469072Y-105547000D01*
X149452008Y-105373746D01*
X149428728Y-105297000D01*
X149742928Y-105297000D01*
X149746000Y-105886250D01*
X149904750Y-106045000D01*
X150879000Y-106045000D01*
X150879000Y-104820750D01*
X151133000Y-104820750D01*
X151133000Y-106045000D01*
X152107250Y-106045000D01*
X152266000Y-105886250D01*
X152269072Y-105297000D01*
X152256812Y-105172518D01*
X152220502Y-105052820D01*
X152161537Y-104942506D01*
X152082185Y-104845815D01*
X151985494Y-104766463D01*
X151875180Y-104707498D01*
X151755482Y-104671188D01*
X151631000Y-104658928D01*
X151291750Y-104662000D01*
X151133000Y-104820750D01*
X150879000Y-104820750D01*
X150720250Y-104662000D01*
X150381000Y-104658928D01*
X150256518Y-104671188D01*
X150136820Y-104707498D01*
X150026506Y-104766463D01*
X149929815Y-104845815D01*
X149850463Y-104942506D01*
X149791498Y-105052820D01*
X149755188Y-105172518D01*
X149742928Y-105297000D01*
X149428728Y-105297000D01*
X149401472Y-105207150D01*
X149319405Y-105053614D01*
X149208962Y-104919038D01*
X149074386Y-104808595D01*
X148920850Y-104726528D01*
X148754254Y-104675992D01*
X148581000Y-104658928D01*
X147831000Y-104658928D01*
X147657746Y-104675992D01*
X147491150Y-104726528D01*
X147337614Y-104808595D01*
X147203038Y-104919038D01*
X147092595Y-105053614D01*
X147010528Y-105207150D01*
X146959992Y-105373746D01*
X146942928Y-105547000D01*
X146942928Y-106797000D01*
X146959992Y-106970254D01*
X147010528Y-107136850D01*
X147092595Y-107290386D01*
X147203038Y-107424962D01*
X147337614Y-107535405D01*
X147491150Y-107617472D01*
X147657746Y-107668008D01*
X147831000Y-107685072D01*
X148581000Y-107685072D01*
X148638597Y-107679399D01*
X148842215Y-107883018D01*
X148866009Y-107912011D01*
X148895002Y-107935805D01*
X148895006Y-107935809D01*
X148955775Y-107985680D01*
X148981734Y-108006984D01*
X149113763Y-108077556D01*
X149257024Y-108121013D01*
X149368677Y-108132010D01*
X149368686Y-108132010D01*
X149406009Y-108135686D01*
X149443332Y-108132010D01*
X154464668Y-108132010D01*
X154501990Y-108135686D01*
X154539312Y-108132010D01*
X154539323Y-108132010D01*
X154650976Y-108121013D01*
X154794237Y-108077556D01*
X154926266Y-108006984D01*
X155041991Y-107912011D01*
X155065793Y-107883008D01*
X155674431Y-107274371D01*
X155707999Y-107277677D01*
X155745322Y-107274001D01*
X161180677Y-107274001D01*
X161217999Y-107277677D01*
X161255321Y-107274001D01*
X161255332Y-107274001D01*
X161366985Y-107263004D01*
X161510246Y-107219547D01*
X161642275Y-107148975D01*
X161758000Y-107054002D01*
X161781802Y-107024999D01*
X162044156Y-106762646D01*
X162073820Y-106778502D01*
X162193518Y-106814812D01*
X162318000Y-106827072D01*
X163818000Y-106827072D01*
X163942482Y-106814812D01*
X164062180Y-106778502D01*
X164172494Y-106719537D01*
X164269185Y-106640185D01*
X164348537Y-106543494D01*
X164407502Y-106433180D01*
X164443812Y-106313482D01*
X164456072Y-106189000D01*
X164456072Y-105139000D01*
X164443812Y-105014518D01*
X164407502Y-104894820D01*
X164372907Y-104830098D01*
X164436215Y-104621400D01*
X164458612Y-104394000D01*
X164436215Y-104166600D01*
X164369885Y-103947940D01*
X164268895Y-103759000D01*
X164369885Y-103570060D01*
X164436215Y-103351400D01*
X164458612Y-103124000D01*
X164436215Y-102896600D01*
X164369885Y-102677940D01*
X164262171Y-102476421D01*
X164117212Y-102299788D01*
X163940579Y-102154829D01*
X163739060Y-102047115D01*
X163520400Y-101980785D01*
X163349979Y-101964000D01*
X162786021Y-101964000D01*
X162615600Y-101980785D01*
X162396940Y-102047115D01*
X162195421Y-102154829D01*
X162018788Y-102299788D01*
X161873829Y-102476421D01*
X161766115Y-102677940D01*
X161699785Y-102896600D01*
X161677388Y-103124000D01*
X161699785Y-103351400D01*
X161766115Y-103570060D01*
X161821913Y-103674452D01*
X161775753Y-103688454D01*
X161643724Y-103759026D01*
X161527999Y-103853999D01*
X161504201Y-103882997D01*
X160483199Y-104904000D01*
X158060287Y-104904000D01*
X158057502Y-104894820D01*
X158022907Y-104830098D01*
X158086215Y-104621400D01*
X158108612Y-104394000D01*
X158086215Y-104166600D01*
X158019885Y-103947940D01*
X157918895Y-103759000D01*
X158019885Y-103570060D01*
X158086215Y-103351400D01*
X158108612Y-103124000D01*
X158086215Y-102896600D01*
X158019885Y-102677940D01*
X157912171Y-102476421D01*
X157767212Y-102299788D01*
X157590579Y-102154829D01*
X157478000Y-102094654D01*
X157478000Y-97336801D01*
X159396730Y-95418072D01*
X161260000Y-95418072D01*
X161433254Y-95401008D01*
X161599850Y-95350472D01*
X161753386Y-95268405D01*
X161887962Y-95157962D01*
X161998405Y-95023386D01*
X162080472Y-94869850D01*
X162131008Y-94703254D01*
X162148072Y-94530000D01*
X162148072Y-93430000D01*
X162131008Y-93256746D01*
X162080472Y-93090150D01*
X161998405Y-92936614D01*
X161887962Y-92802038D01*
X161753386Y-92691595D01*
X161599850Y-92609528D01*
X161433254Y-92558992D01*
X161260000Y-92541928D01*
X158260000Y-92541928D01*
X158086746Y-92558992D01*
X157920150Y-92609528D01*
X157766614Y-92691595D01*
X157632038Y-92802038D01*
X157521595Y-92936614D01*
X157439528Y-93090150D01*
X157388992Y-93256746D01*
X157371928Y-93430000D01*
X157371928Y-94530000D01*
X157388992Y-94703254D01*
X157439528Y-94869850D01*
X157521595Y-95023386D01*
X157575783Y-95089415D01*
X156206998Y-96458201D01*
X156178000Y-96481999D01*
X156154202Y-96510997D01*
X156154201Y-96510998D01*
X156083026Y-96597724D01*
X156012454Y-96729754D01*
X155968998Y-96873015D01*
X155954324Y-97022000D01*
X155958001Y-97059332D01*
X155958000Y-102094654D01*
X155845421Y-102154829D01*
X155668788Y-102299788D01*
X155616091Y-102364000D01*
X145380822Y-102364000D01*
X145343499Y-102360324D01*
X145306176Y-102364000D01*
X145306167Y-102364000D01*
X145194514Y-102374997D01*
X145051253Y-102418454D01*
X144919224Y-102489026D01*
X144919222Y-102489027D01*
X144919223Y-102489027D01*
X144832496Y-102560201D01*
X144832492Y-102560205D01*
X144803499Y-102583999D01*
X144779705Y-102612992D01*
X144282770Y-103109928D01*
X143281999Y-103109928D01*
X143108745Y-103126992D01*
X142942149Y-103177528D01*
X142788613Y-103259595D01*
X142654038Y-103370038D01*
X142543595Y-103504613D01*
X142461528Y-103658149D01*
X142410992Y-103824745D01*
X142393928Y-103997999D01*
X141068821Y-103997999D01*
X141070072Y-103748000D01*
X141057812Y-103623518D01*
X141021502Y-103503820D01*
X140962537Y-103393506D01*
X140883185Y-103296815D01*
X140786494Y-103217463D01*
X140676180Y-103158498D01*
X140556482Y-103122188D01*
X140432000Y-103109928D01*
X139930250Y-103113000D01*
X139771500Y-103271750D01*
X139517500Y-103271750D01*
X139358750Y-103113000D01*
X138857000Y-103109928D01*
X138732518Y-103122188D01*
X138612820Y-103158498D01*
X138502506Y-103217463D01*
X138405815Y-103296815D01*
X138326463Y-103393506D01*
X138267498Y-103503820D01*
X138231188Y-103623518D01*
X138218928Y-103748000D01*
X137541000Y-103748000D01*
X137541000Y-96563605D01*
X138566000Y-96563605D01*
X138691914Y-96853577D01*
X139024126Y-97019433D01*
X139382312Y-97117290D01*
X139752706Y-97143389D01*
X140121075Y-97096725D01*
X140473262Y-96979094D01*
X140708086Y-96853577D01*
X140834000Y-96563605D01*
X139700000Y-95429605D01*
X138566000Y-96563605D01*
X137541000Y-96563605D01*
X137541000Y-95302706D01*
X137806611Y-95302706D01*
X137853275Y-95671075D01*
X137970906Y-96023262D01*
X138096423Y-96258086D01*
X138386395Y-96384000D01*
X139520395Y-95250000D01*
X139879605Y-95250000D01*
X141013605Y-96384000D01*
X141303577Y-96258086D01*
X141469433Y-95925874D01*
X141567290Y-95567688D01*
X141593389Y-95197294D01*
X141576298Y-95062374D01*
X147325000Y-95062374D01*
X147325000Y-95437626D01*
X147398209Y-95805668D01*
X147541811Y-96152356D01*
X147750290Y-96464366D01*
X148015634Y-96729710D01*
X148327644Y-96938189D01*
X148674332Y-97081791D01*
X149042374Y-97155000D01*
X149417626Y-97155000D01*
X149785668Y-97081791D01*
X150132356Y-96938189D01*
X150444366Y-96729710D01*
X150709710Y-96464366D01*
X150918189Y-96152356D01*
X151061791Y-95805668D01*
X151135000Y-95437626D01*
X151135000Y-95062374D01*
X151061791Y-94694332D01*
X150918189Y-94347644D01*
X150709710Y-94035634D01*
X150444366Y-93770290D01*
X150132356Y-93561811D01*
X149785668Y-93418209D01*
X149417626Y-93345000D01*
X149042374Y-93345000D01*
X148674332Y-93418209D01*
X148327644Y-93561811D01*
X148015634Y-93770290D01*
X147750290Y-94035634D01*
X147541811Y-94347644D01*
X147398209Y-94694332D01*
X147325000Y-95062374D01*
X141576298Y-95062374D01*
X141546725Y-94828925D01*
X141429094Y-94476738D01*
X141303577Y-94241914D01*
X141013605Y-94116000D01*
X139879605Y-95250000D01*
X139520395Y-95250000D01*
X138386395Y-94116000D01*
X138096423Y-94241914D01*
X137930567Y-94574126D01*
X137832710Y-94932312D01*
X137806611Y-95302706D01*
X137541000Y-95302706D01*
X137541000Y-93936395D01*
X138566000Y-93936395D01*
X139700000Y-95070395D01*
X140834000Y-93936395D01*
X140708086Y-93646423D01*
X140375874Y-93480567D01*
X140017688Y-93382710D01*
X139647294Y-93356611D01*
X139278925Y-93403275D01*
X138926738Y-93520906D01*
X138691914Y-93646423D01*
X138566000Y-93936395D01*
X137541000Y-93936395D01*
X137541000Y-88265000D01*
X167513000Y-88265000D01*
X167513000Y-92832547D01*
M02*
